<?xml version="1.0" encoding="UTF-8"?>
<svg version="1.1" xmlns="http://www.w3.org/2000/svg" width="512" height="512">
<path d="M0 0 C1.80421654 -0.00668677 1.80421654 -0.00668677 3.6448819 -0.01350862 C4.98647957 -0.01341932 6.32807723 -0.01322946 7.66967487 -0.01294994 C9.08961965 -0.01624865 10.50956349 -0.01997424 11.92950612 -0.02409142 C15.84082755 -0.03411876 19.75213363 -0.03782939 23.6634661 -0.04048073 C27.87833632 -0.04438161 32.09319437 -0.05396009 36.30805683 -0.0626936 C46.49158003 -0.08246408 56.67510424 -0.09252493 66.85864183 -0.10142139 C71.6528039 -0.10580331 76.44696487 -0.11117036 81.24112606 -0.11641026 C97.1755316 -0.13342308 113.10993644 -0.14791764 129.04434967 -0.155159 C133.1802257 -0.15706893 137.31610172 -0.15898926 141.45197773 -0.16094494 C142.99392839 -0.16167055 142.99392839 -0.16167055 144.56702957 -0.16241082 C161.22247412 -0.17071257 177.87784688 -0.1960517 194.53326007 -0.22852562 C211.62822272 -0.26158514 228.72314888 -0.27960675 245.81814367 -0.28280324 C255.41829842 -0.28496935 265.01834848 -0.29373288 274.6184721 -0.31926441 C282.7937885 -0.34095629 290.96897478 -0.34902929 299.1443167 -0.33929763 C303.31545421 -0.33474853 307.48632318 -0.3366744 311.65742397 -0.35605907 C315.47776603 -0.37366028 319.29764303 -0.37271808 323.11798982 -0.35716178 C325.15095459 -0.35365526 327.18392408 -0.36983469 329.21682137 -0.38676625 C338.39509923 -0.32199031 344.76286191 1.24688357 351.81989765 7.53265858 C361.40616072 18.15527441 361.60618941 30.64605495 362.01040363 44.20108509 C362.06503892 45.83833739 362.12023397 47.47557108 362.17593783 49.11278737 C362.32559405 53.59923423 362.46280401 58.08598304 362.59676993 62.57292295 C362.68326324 65.44601982 362.77293269 68.3190022 362.86342907 71.19197559 C364.01071688 107.78379822 364.72432933 144.38266399 365.26254468 180.98814433 C365.35098644 186.99537486 365.44250914 193.0025548 365.5359621 199.00970936 C365.55450438 200.20511739 365.57304666 201.40052542 365.59215083 202.63215794 C365.86011524 219.45946814 366.31056717 236.27325361 366.90689766 253.09200452 C373.60663553 442.3027291 373.60663553 442.3027291 337.35453701 481.81584835 C304.80981447 514.92671878 257.40768097 518.18897038 213.42976055 518.62263381 C193.00416069 518.72248365 172.60582892 517.78262742 152.2112717 516.76258254 C140.38477484 516.17815911 128.56390047 515.80049893 116.72565937 515.55585194 C115.88422354 515.53840929 115.04278772 515.52096664 114.17585383 515.50299542 C110.79113883 515.43355428 107.40640099 515.36542034 104.02162551 515.29899042 C77.58130318 514.77933136 51.14869101 514.05760089 24.72958302 512.86679471 C22.7424584 512.77958828 20.75500624 512.69995241 18.76756001 512.62041187 C15.12802048 512.47205815 11.49043501 512.29986409 7.85233784 512.11992359 C6.80133738 512.08041598 5.75033693 512.04090836 4.66748798 512.00020355 C-5.78231804 511.42317851 -13.58802775 507.81152884 -20.73478985 500.13422108 C-26.17625473 493.11832219 -28.04374751 485.99468202 -27.98926544 477.13244629 C-27.99247192 476.35240182 -27.9956784 475.57235736 -27.99898204 474.76867518 C-28.00727758 472.15714672 -28.00135931 469.54584786 -27.99548626 466.93431568 C-27.99850715 465.04211632 -28.00239631 463.14991818 -28.00707883 461.2577222 C-28.0173757 456.05950039 -28.01517269 450.86134742 -28.01089823 445.66311991 C-28.00843407 440.0563114 -28.01744135 434.44951959 -28.02493572 428.84271717 C-28.03769357 417.85868388 -28.03947504 406.87467502 -28.03713546 395.89063557 C-28.03535327 386.96306243 -28.0370998 378.03549671 -28.0413599 369.10792446 C-28.04195509 367.83786931 -28.04255028 366.56781416 -28.0431635 365.25927249 C-28.04437524 362.67923754 -28.04558938 360.09920259 -28.04680588 357.51916764 C-28.05459462 340.19241649 -28.05851117 322.86566973 -28.05448914 305.53891754 C-28.05433276 304.86139898 -28.05417638 304.18388042 -28.05401527 303.48583099 C-28.05320949 300.05195027 -28.05236372 296.61806957 -28.05150197 293.18418887 C-28.05133088 292.50221791 -28.05115979 291.82024696 -28.05098352 291.11761022 C-28.05063686 289.73849914 -28.05028833 288.35938807 -28.04993793 286.980277 C-28.04458128 265.5235188 -28.05250967 244.06680169 -28.07097149 222.61005116 C-28.09169296 198.49887416 -28.10238279 174.38772897 -28.098396 150.2765401 C-28.09648265 137.51184314 -28.09898458 124.74718363 -28.11311054 111.9824934 C-28.12501493 101.11521181 -28.12643981 90.24799071 -28.11432038 79.3807083 C-28.10842498 73.83622692 -28.1073506 68.29185622 -28.11932278 62.74738216 C-28.13015867 57.67012353 -28.12710543 52.59306831 -28.11306109 47.51581929 C-28.11040784 45.68073499 -28.11280037 43.84563487 -28.12079696 42.01056608 C-28.17077465 29.68435596 -27.98630358 19.03603756 -19.77385235 9.18109608 C-14.00405347 3.38919069 -8.21486815 0.01409317 0 0 Z " fill="#FEFEFE" transform="translate(88.73478984832764,-0.13422107696533203)"/>
<path d="M0 0 C1.80421654 -0.00668677 1.80421654 -0.00668677 3.6448819 -0.01350862 C4.98647957 -0.01341932 6.32807723 -0.01322946 7.66967487 -0.01294994 C9.08961965 -0.01624865 10.50956349 -0.01997424 11.92950612 -0.02409142 C15.84082755 -0.03411876 19.75213363 -0.03782939 23.6634661 -0.04048073 C27.87833632 -0.04438161 32.09319437 -0.05396009 36.30805683 -0.0626936 C46.49158003 -0.08246408 56.67510424 -0.09252493 66.85864183 -0.10142139 C71.6528039 -0.10580331 76.44696487 -0.11117036 81.24112606 -0.11641026 C97.1755316 -0.13342308 113.10993644 -0.14791764 129.04434967 -0.155159 C133.1802257 -0.15706893 137.31610172 -0.15898926 141.45197773 -0.16094494 C142.99392839 -0.16167055 142.99392839 -0.16167055 144.56702957 -0.16241082 C161.22247412 -0.17071257 177.87784688 -0.1960517 194.53326007 -0.22852562 C211.62822272 -0.26158514 228.72314888 -0.27960675 245.81814367 -0.28280324 C255.41829842 -0.28496935 265.01834848 -0.29373288 274.6184721 -0.31926441 C282.7937885 -0.34095629 290.96897478 -0.34902929 299.1443167 -0.33929763 C303.31545421 -0.33474853 307.48632318 -0.3366744 311.65742397 -0.35605907 C315.47776603 -0.37366028 319.29764303 -0.37271808 323.11798982 -0.35716178 C325.15095459 -0.35365526 327.18392408 -0.36983469 329.21682137 -0.38676625 C338.39509923 -0.32199031 344.76286191 1.24688357 351.81989765 7.53265858 C361.40616072 18.15527441 361.60618941 30.64605495 362.01040363 44.20108509 C362.06503892 45.83833739 362.12023397 47.47557108 362.17593783 49.11278737 C362.32559405 53.59923423 362.46280401 58.08598304 362.59676993 62.57292295 C362.68326324 65.44601982 362.77293269 68.3190022 362.86342907 71.19197559 C364.01071688 107.78379822 364.72432933 144.38266399 365.26254468 180.98814433 C365.35098644 186.99537486 365.44250914 193.0025548 365.5359621 199.00970936 C365.55450438 200.20511739 365.57304666 201.40052542 365.59215083 202.63215794 C365.86011524 219.45946814 366.31056717 236.27325361 366.90689766 253.09200452 C373.60663553 442.3027291 373.60663553 442.3027291 337.35453701 481.81584835 C304.80981447 514.92671878 257.40768097 518.18897038 213.42976055 518.62263381 C193.00416069 518.72248365 172.60582892 517.78262742 152.2112717 516.76258254 C140.38477484 516.17815911 128.56390047 515.80049893 116.72565937 515.55585194 C115.88422354 515.53840929 115.04278772 515.52096664 114.17585383 515.50299542 C110.79113883 515.43355428 107.40640099 515.36542034 104.02162551 515.29899042 C77.58130318 514.77933136 51.14869101 514.05760089 24.72958302 512.86679471 C22.7424584 512.77958828 20.75500624 512.69995241 18.76756001 512.62041187 C15.12802048 512.47205815 11.49043501 512.29986409 7.85233784 512.11992359 C6.80133738 512.08041598 5.75033693 512.04090836 4.66748798 512.00020355 C-5.78231804 511.42317851 -13.58802775 507.81152884 -20.73478985 500.13422108 C-26.17625473 493.11832219 -28.04374751 485.99468202 -27.98926544 477.13244629 C-27.99247192 476.35240182 -27.9956784 475.57235736 -27.99898204 474.76867518 C-28.00727758 472.15714672 -28.00135931 469.54584786 -27.99548626 466.93431568 C-27.99850715 465.04211632 -28.00239631 463.14991818 -28.00707883 461.2577222 C-28.0173757 456.05950039 -28.01517269 450.86134742 -28.01089823 445.66311991 C-28.00843407 440.0563114 -28.01744135 434.44951959 -28.02493572 428.84271717 C-28.03769357 417.85868388 -28.03947504 406.87467502 -28.03713546 395.89063557 C-28.03535327 386.96306243 -28.0370998 378.03549671 -28.0413599 369.10792446 C-28.04195509 367.83786931 -28.04255028 366.56781416 -28.0431635 365.25927249 C-28.04437524 362.67923754 -28.04558938 360.09920259 -28.04680588 357.51916764 C-28.05459462 340.19241649 -28.05851117 322.86566973 -28.05448914 305.53891754 C-28.05433276 304.86139898 -28.05417638 304.18388042 -28.05401527 303.48583099 C-28.05320949 300.05195027 -28.05236372 296.61806957 -28.05150197 293.18418887 C-28.05133088 292.50221791 -28.05115979 291.82024696 -28.05098352 291.11761022 C-28.05063686 289.73849914 -28.05028833 288.35938807 -28.04993793 286.980277 C-28.04458128 265.5235188 -28.05250967 244.06680169 -28.07097149 222.61005116 C-28.09169296 198.49887416 -28.10238279 174.38772897 -28.098396 150.2765401 C-28.09648265 137.51184314 -28.09898458 124.74718363 -28.11311054 111.9824934 C-28.12501493 101.11521181 -28.12643981 90.24799071 -28.11432038 79.3807083 C-28.10842498 73.83622692 -28.1073506 68.29185622 -28.11932278 62.74738216 C-28.13015867 57.67012353 -28.12710543 52.59306831 -28.11306109 47.51581929 C-28.11040784 45.68073499 -28.11280037 43.84563487 -28.12079696 42.01056608 C-28.17077465 29.68435596 -27.98630358 19.03603756 -19.77385235 9.18109608 C-14.00405347 3.38919069 -8.21486815 0.01409317 0 0 Z M-14.73478985 13.13422108 C-19.55773374 19.78466222 -20.88488127 24.60592145 -20.87459755 32.81370449 C-20.87754897 33.59535255 -20.8805004 34.3770006 -20.88354126 35.18233496 C-20.89224477 37.81731835 -20.89381404 40.45225792 -20.89541912 43.08725452 C-20.90014924 44.98923865 -20.90530003 46.89122176 -20.91083676 48.79320371 C-20.92475665 54.03238498 -20.93233034 59.27155929 -20.93880975 64.51075435 C-20.94517716 69.00139278 -20.95524773 73.49201977 -20.96537041 77.98265107 C-20.99870587 92.77804309 -21.02021697 107.57344208 -21.03857026 122.36885935 C-21.04336458 126.22050452 -21.04834797 130.0721494 -21.05337548 133.92379427 C-21.08434381 157.83471918 -21.11103733 181.74564571 -21.12779427 205.65658474 C-21.13173146 211.19584248 -21.13574331 216.73510016 -21.13981915 222.2743578 C-21.14032081 222.96253598 -21.14082248 223.65071417 -21.14133935 224.35974625 C-21.15775664 246.67100676 -21.19621304 268.98215758 -21.24710625 291.29336414 C-21.30081792 314.88318145 -21.33251351 338.47290796 -21.33999115 362.06279218 C-21.34465619 374.92149633 -21.35943707 387.78001891 -21.39973545 400.6386652 C-21.43400952 411.58839926 -21.44798526 422.537919 -21.43531131 433.48770364 C-21.42947855 439.07482929 -21.43339248 444.6615015 -21.46348095 450.248559 C-21.49081012 455.36497831 -21.49036946 460.4806213 -21.4679705 465.59705763 C-21.46474368 467.44637496 -21.47163855 469.29574397 -21.48976772 471.14497526 C-21.57975188 480.91730969 -21.65282023 489.44483071 -14.73478985 497.13422108 C-9.36278976 502.01462292 -4.1342942 505.38688936 3.31578255 505.38031673 C4.81464193 505.38628988 4.81464193 505.38628988 6.34378129 505.39238369 C7.4342464 505.38655801 8.52471151 505.38073233 9.64822102 505.37473011 C10.81222201 505.37643896 11.97622301 505.37814781 13.17549676 505.37990844 C16.40230688 505.38263254 19.62895623 505.37638419 22.85574734 505.36635232 C26.33694617 505.35771401 29.81813753 505.36063825 33.29934406 505.36215687 C39.32941494 505.36320548 45.35944253 505.35693138 51.38950253 505.34568119 C60.10794653 505.32942591 68.82636961 505.32421816 77.54482713 505.32170521 C91.68999596 505.31732815 105.83514173 505.30401875 119.98029804 505.28509998 C133.72085676 505.26674147 147.46140922 505.25258482 161.20197773 505.24408436 C162.47246742 505.24329619 162.47246742 505.24329619 163.76862357 505.24249209 C168.01774659 505.23988202 172.26686966 505.2373546 176.51599276 505.23486829 C211.76574834 505.21413545 247.01547712 505.17890962 282.26521015 505.13422108 C282.26885578 504.3833321 282.27250141 503.63244312 282.27625751 502.85879993 C282.31419297 495.76721648 282.37110809 488.67609506 282.44911289 481.58485699 C282.48854904 477.93951006 282.52075603 474.29440327 282.53620625 470.64886951 C282.55139894 467.12779032 282.58588897 463.60737149 282.63351917 460.08658695 C282.65548147 458.09596525 282.65768165 456.10515713 282.6595583 454.11441517 C282.79326146 445.83663238 283.63152814 441.70302922 289.64460468 435.79730701 C295.3514343 433.17593659 300.98770381 433.53069753 307.19489765 433.52484608 C308.55397723 433.50985151 309.91303867 433.49312168 311.27207661 433.47473621 C314.83288668 433.43119257 318.39345101 433.41109293 321.95448017 433.39600086 C325.59466219 433.37638245 329.23458062 433.33441798 332.87458515 433.29437733 C340.00469281 433.21921664 347.13478097 433.16883992 354.26521015 433.13422108 C354.35675935 381.45506315 354.42724568 329.77591342 354.46947147 278.09669036 C354.47447431 271.99591922 354.4796516 265.89514823 354.48493671 259.79437733 C354.48598596 258.57982022 354.4870352 257.36526311 354.48811623 256.11390124 C354.50552294 236.44622533 354.53706212 216.77859616 354.57382134 197.11094798 C354.61122331 176.93114116 354.63344444 156.75135884 354.64156413 136.57151878 C354.64705343 124.11880202 354.66439296 111.6662174 354.69687602 99.21354131 C354.71801469 90.67505612 354.72441164 82.13663928 354.71921566 73.59812982 C354.7166529 68.67135205 354.72059023 63.74480525 354.74203205 58.8180685 C354.76153055 54.30485793 354.76245874 49.79203317 354.74880573 45.27880464 C354.74711889 43.64875086 354.75216511 42.01867277 354.76474288 40.38866664 C354.83677731 30.47447351 354.57909701 21.57523251 348.18708515 13.51312733 C347.4703664 12.91371326 346.75364765 12.3142992 346.01521015 11.69672108 C344.95560078 10.77052967 344.95560078 10.77052967 343.87458515 9.82562733 C336.04304339 4.74919382 328.82388449 4.70334781 319.72849751 4.74654102 C318.35515705 4.74236396 316.98182004 4.7368844 315.60848939 4.73022121 C311.84907698 4.71579655 308.08988436 4.72000193 304.33046007 4.72738802 C300.27036431 4.73212482 296.21031574 4.7196053 292.15023518 4.70937061 C284.20166239 4.69218708 276.25316867 4.69134171 268.30458213 4.69658352 C261.84270299 4.70062741 255.38084719 4.69917905 248.91896915 4.69383526 C247.99874501 4.69308684 247.07852087 4.69233841 246.13041114 4.69156731 C244.26087972 4.69003581 242.3913483 4.68849746 240.52181689 4.68695235 C222.99516853 4.67322882 205.46856481 4.67866387 187.94191746 4.69013756 C171.91538494 4.70006895 155.88896789 4.68713063 139.86245318 4.66320337 C123.39785893 4.63880767 106.93331845 4.6292057 90.46870649 4.63585609 C81.22851381 4.63934737 71.98840993 4.63712229 62.74823093 4.61960506 C54.88196183 4.60487719 47.01584403 4.60425526 39.14957787 4.62167598 C35.13816081 4.6301837 31.12701399 4.63234127 27.11561108 4.61702442 C23.43905676 4.60316023 19.76300373 4.60796219 16.08647828 4.62726366 C14.13576904 4.63278936 12.18503417 4.6187665 10.23437369 4.60390955 C0.96948069 4.68129883 -8.00963608 6.21692006 -14.73478985 13.13422108 Z " fill="#CDCDCD" transform="translate(88.73478984832764,-0.13422107696533203)"/>
<path d="M0 0 C2.04918461 1.89873815 3.39265278 3.66204041 5 6 C5 6.99 5 7.98 5 9 C5.66 9 6.32 9 7 9 C7.33 8.01 7.66 7.02 8 6 C9.890625 4.46484375 9.890625 4.46484375 12.25 2.9375 C13.40242188 2.17759766 13.40242188 2.17759766 14.578125 1.40234375 C21.78580572 -2.77113589 28.88410154 -2.709922 37 -2 C40.88664803 -0.8440034 43.23296052 0.93822697 45.63671875 4.265625 C51.64735793 16.32134828 44.52855103 34.53523592 41.7265625 46.74462891 C40.50198947 52.23134151 39.51671362 57.75347042 38.54296875 63.2890625 C38 66 38 66 37 68 C31.06 68 25.12 68 19 68 C19 62.58132175 19.30291812 58.77904797 20.4609375 53.6328125 C20.68688095 52.61427689 20.68688095 52.61427689 20.91738892 51.57516479 C21.39635118 49.42349468 21.88544919 47.27428286 22.375 45.125 C22.69599237 43.69155832 23.01631036 42.25796546 23.3359375 40.82421875 C24.43248641 35.91593625 25.53846818 31.00986925 26.6640625 26.1081543 C27.60406568 21.98095284 28.41434947 18.24708208 28 14 C25.68751503 11.68751503 25.03894341 11.60837499 21.875 11.4375 C17.01635315 11.59372659 14.27477478 13.12378363 10.9050293 16.57958984 C4.22610641 25.06540831 2.68989594 37.10410701 0.8125 47.4375 C0.32483244 50.0623459 -0.17091776 52.68549 -0.66796875 55.30859375 C-0.98157349 57.02260376 -0.98157349 57.02260376 -1.30151367 58.77124023 C-2 62 -2 62 -4 68 C-9.94 68 -15.88 68 -22 68 C-21.56884694 61.8727685 -20.66126909 55.97505283 -19.37109375 49.97265625 C-19.21677887 49.25314789 -19.06246399 48.53363953 -18.9034729 47.79232788 C-18.25596373 44.79529601 -17.60152272 41.79992382 -16.93579102 38.80688477 C-15.02272787 30.16375391 -13.40353868 21.91559058 -14 13 C-17.23221953 11.38389023 -20.49675203 11.57357469 -24 12 C-29.74984548 14.29993819 -32.03681719 18.6188276 -34.5546875 24.00390625 C-39.49233452 36.61903254 -41.09258252 50.91230255 -43.421875 64.2109375 C-44 67 -44 67 -45 68 C-46.34267413 68.08631874 -47.68974322 68.10706473 -49.03515625 68.09765625 C-49.84404297 68.09443359 -50.65292969 68.09121094 -51.48632812 68.08789062 C-52.33646484 68.07951172 -53.18660156 68.07113281 -54.0625 68.0625 C-54.91650391 68.05798828 -55.77050781 68.05347656 -56.65039062 68.04882812 C-58.76695663 68.03700373 -60.88348685 68.01906769 -63 68 C-62.39361082 61.92556885 -61.51584684 56.01732531 -60.29296875 50.0390625 C-60.12630203 49.20901703 -59.95963531 48.37897156 -59.78791809 47.52377319 C-59.25806583 44.89010348 -58.72279377 42.25756844 -58.1875 39.625 C-57.84015776 37.8998074 -57.49315035 36.17454736 -57.14648438 34.44921875 C-56.28419067 30.16693677 -55.41243594 25.88666718 -54.53460693 21.60754395 C-54.16917667 19.82515877 -53.80501787 18.04251257 -53.44195557 16.25964355 C-52.8988854 13.59673725 -52.35057749 10.93496224 -51.80078125 8.2734375 C-51.55149117 7.04628525 -51.55149117 7.04628525 -51.29716492 5.79434204 C-50.11452275 0.11452275 -50.11452275 0.11452275 -49 -1 C-46.13732433 -1.07325168 -43.299281 -1.09238205 -40.4375 -1.0625 C-39.63119141 -1.05798828 -38.82488281 -1.05347656 -37.99414062 -1.04882812 C-35.99606244 -1.03700518 -33.99802217 -1.01906914 -32 -1 C-32 1.31 -32 3.62 -32 6 C-31.5153125 5.60167969 -31.030625 5.20335937 -30.53125 4.79296875 C-21.21326911 -2.57181999 -11.08546815 -6.3954624 0 0 Z " fill="#0EA5E0" transform="translate(306,291)"/>
<path d="M0 0 C6.27 0 12.54 0 19 0 C17.13873733 11.16757602 14.90080798 22.05938917 12 33 C12.59167969 32.59007812 13.18335938 32.18015625 13.79296875 31.7578125 C14.58316406 31.21898437 15.37335938 30.68015625 16.1875 30.125 C16.96480469 29.59132813 17.74210937 29.05765625 18.54296875 28.5078125 C23.67451981 25.35872075 27.96521984 24.65977354 33.9375 24.6875 C34.62779297 24.67138672 35.31808594 24.65527344 36.02929688 24.63867188 C40.77389045 24.63417463 43.97928838 25.50192473 48 28 C53.5678618 34.1697928 53.44992599 38.81605138 53.13623047 46.95849609 C52.70734755 53.38559106 51.2969545 59.70394101 50 66 C49.79648926 66.99612305 49.59297852 67.99224609 49.38330078 69.01855469 C48.11985535 75.18357074 46.83323254 81.34338111 45.52490234 87.49902344 C45.00082085 89.99608891 44.50038437 92.49807816 44 95 C37.73 95 31.46 95 25 95 C25.41433642 89.01254688 26.28406183 83.29181552 27.62890625 77.4453125 C27.78322113 76.7724823 27.93753601 76.0996521 28.0965271 75.40643311 C28.74283285 72.611244 29.39670331 69.81803823 30.06420898 67.02783203 C33.32507731 54.13821277 33.32507731 54.13821277 33 41 C29.28587547 38.52391698 26.30602748 38.34509088 22 39 C14.83283834 42.65384712 10.60703751 48.52500748 8 56 C7.032719 59.64011603 6.25918977 63.3115524 5.5 67 C5.17854004 68.5161792 5.17854004 68.5161792 4.85058594 70.06298828 C3.35152846 77.17051041 1.92718533 84.29221714 0.578125 91.4296875 C0 94 0 94 -1 95 C-2.34267413 95.08631874 -3.68974322 95.10706473 -5.03515625 95.09765625 C-5.84404297 95.09443359 -6.65292969 95.09121094 -7.48632812 95.08789062 C-8.33646484 95.07951172 -9.18660156 95.07113281 -10.0625 95.0625 C-10.91650391 95.05798828 -11.77050781 95.05347656 -12.65039062 95.04882812 C-14.76695663 95.03700373 -16.88348685 95.01906769 -19 95 C-18.55809214 86.24691599 -16.82421206 77.87455635 -14.90512085 69.35470581 C-13.98837941 65.28269771 -13.09389299 61.20581039 -12.19921875 57.12890625 C-12.01553238 56.2935585 -11.83184601 55.45821075 -11.64259338 54.59754944 C-9.39118747 44.3035783 -7.36106976 33.96568255 -5.34716797 23.62304688 C-3.79211765 15.68078261 -2.03645343 7.83392444 0 0 Z " fill="#0EA5E0" transform="translate(137,264)"/>
<path d="M0 0 C4.66727933 1.55575978 9.01183042 3.28506945 13.44921875 5.3515625 C14.1676445 5.68295227 14.88607025 6.01434204 15.62626648 6.35577393 C17.17463846 7.07041829 18.72235307 7.78648833 20.26947021 8.50384521 C22.71628291 9.63834562 25.16476415 10.76916713 27.61376953 11.89892578 C30.15969753 13.0734208 32.70552997 14.2481173 35.25085449 15.42391968 C43.52257112 19.24476439 51.80486921 23.04228884 60.09146118 26.83074951 C62.33310952 27.8558437 64.57417049 28.88221368 66.81518555 29.90869141 C68.19706881 30.54076455 69.5789844 31.17276704 70.9609375 31.8046875 C72.15509277 32.35108887 73.34924805 32.89749023 74.57958984 33.46044922 C78.03450511 35.01553099 81.51757808 36.50753346 85 38 C85 43.94 85 49.88 85 56 C66.29927894 64.59999011 47.59573068 73.19363687 28.875 81.75 C27.78812393 82.24681274 27.78812393 82.24681274 26.67929077 82.75366211 C20.93544092 85.37891688 20.93544092 85.37891688 18.47462463 86.50024414 C15.52567416 87.84402506 12.58051393 89.19492257 9.64160156 90.56054688 C8.64870117 91.02009766 7.65580078 91.47964844 6.6328125 91.953125 C5.7783252 92.35176758 4.92383789 92.75041016 4.04345703 93.16113281 C2 94 2 94 0 94 C0 87.73 0 81.46 0 75 C5.91786815 72.43941743 11.83627105 69.88007587 17.75512695 67.32177734 C19.75949841 66.45523841 21.76373504 65.58838751 23.76782227 64.72119141 C30.50789807 61.8048287 37.25142038 58.89663334 44 56 C44.93696716 55.59765137 45.87393433 55.19530273 46.83929443 54.78076172 C49.49907479 53.64108115 52.16114646 52.50696361 54.82421875 51.375 C55.62414749 51.03202881 56.42407623 50.68905762 57.24824524 50.33569336 C62.76908908 48 62.76908908 48 65 48 C65 47.34 65 46.68 65 46 C64.4613884 45.83007034 63.92277679 45.66014069 63.36784363 45.48506165 C57.57624933 43.61231727 52.00728222 41.40235043 46.42578125 38.98046875 C45.53948532 38.59941483 44.65318939 38.2183609 43.74003601 37.82575989 C40.92936578 36.6164349 38.12089735 35.40209253 35.3125 34.1875 C33.4487139 33.38442627 31.58478267 32.58168925 29.72070312 31.77929688 C26.12895433 30.23272537 22.53799323 28.68434959 18.94775391 27.13427734 C12.63710431 24.41050273 6.3189746 21.70439919 0 19 C0 12.73 0 6.46 0 0 Z " fill="#030303" transform="translate(296,120)"/>
<path d="M0 0 C0 6.27 0 12.54 0 19 C-5.77496222 21.56166542 -11.55097495 24.12094352 -17.32788086 26.67822266 C-19.28388482 27.54446441 -21.23962384 28.41130471 -23.19506836 29.27880859 C-33.3671556 33.79102205 -43.54988168 38.27588507 -53.79296875 42.625 C-54.99570183 43.13945679 -54.99570183 43.13945679 -56.22273254 43.66430664 C-61.76334977 46 -61.76334977 46 -64 46 C-64 46.66 -64 47.32 -64 48 C-63.45885056 48.16992966 -62.91770111 48.33985931 -62.3601532 48.51493835 C-56.62596427 50.3642463 -51.14492832 52.56810644 -45.64453125 55.01953125 C-44.34838142 55.59111214 -44.34838142 55.59111214 -43.02604675 56.17424011 C-40.28650224 57.38319915 -37.5494242 58.59762226 -34.8125 59.8125 C-31.2154281 61.40366702 -27.61743789 62.99275285 -24.01953125 64.58203125 C-23.15707794 64.96352325 -22.29462463 65.34501526 -21.40603638 65.73806763 C-14.29368166 68.88077159 -7.15460725 71.95475593 0 75 C0 81.27 0 87.54 0 94 C-4.30406162 92.56531279 -8.09848815 91.11439891 -12.1640625 89.19921875 C-13.94997803 88.36136841 -13.94997803 88.36136841 -15.77197266 87.5065918 C-16.3993634 87.21037933 -17.02675415 86.91416687 -17.67315674 86.60897827 C-19.66008652 85.67093542 -21.64886017 84.73691001 -23.63818359 83.80395508 C-26.39735667 82.50978651 -29.15592358 81.21433976 -31.9140625 79.91796875 C-38.14359638 76.99179697 -44.38327154 74.08756162 -50.625 71.1875 C-51.77154053 70.65439209 -52.91808105 70.12128418 -54.09936523 69.57202148 C-62.11153165 65.85474022 -70.15056102 62.2012213 -78.22705078 58.62573242 C-83.89628173 56.10371827 -83.89628173 56.10371827 -85 55 C-85.07319621 52.30345146 -85.09242537 49.63308542 -85.0625 46.9375 C-85.05798828 46.17888672 -85.05347656 45.42027344 -85.04882812 44.63867188 C-85.0370068 42.75908129 -85.01907078 40.87953101 -85 39 C-72.35749216 32.50686909 -59.48006967 26.56176711 -46.56298828 20.63818359 C-40.42959846 17.81818594 -34.30881001 14.97109983 -28.1875 12.125 C-24.88264026 10.5887751 -21.57765767 9.05285091 -18.27099609 7.52050781 C-15.96350976 6.44788318 -13.65945419 5.36937118 -11.35791016 4.28417969 C-10.18405762 3.73407227 -9.01020508 3.18396484 -7.80078125 2.6171875 C-6.20423706 1.86477783 -6.20423706 1.86477783 -4.57543945 1.09716797 C-2 0 -2 0 0 0 Z " fill="#030303" transform="translate(216,120)"/>
<path d="M0 0 C5.94 0 11.88 0 18 0 C16.52203128 8.46472994 14.14407395 16.58604747 11.66455078 24.79736328 C10.63953293 28.19475896 9.62970307 31.59654775 8.625 35 C8.32480957 36.01465332 8.32480957 36.01465332 8.01855469 37.04980469 C6.7322434 41.42564881 5.48980745 45.81230227 4.26953125 50.20703125 C3.96644043 51.29822266 3.66334961 52.38941406 3.35107422 53.51367188 C2.75991885 55.64827673 2.17151799 57.78364716 1.58642578 59.91992188 C-0.12281916 66.09743699 -2.02100585 72.17707914 -4.07836914 78.24731445 C-5.29092154 81.86891134 -6.38074457 85.51799361 -7.4375 89.1875 C-7.8618967 90.64585733 -8.28637839 92.10418994 -8.7109375 93.5625 C-8.92331055 94.2946875 -9.13568359 95.026875 -9.35449219 95.78125 C-10.61813954 100.12467933 -11.90501154 104.46130325 -13.1862793 108.79956055 C-14.19996443 112.24254592 -15.19877069 115.688737 -16.16796875 119.14453125 C-16.44241821 120.12063354 -16.44241821 120.12063354 -16.72241211 121.11645508 C-17.21899162 122.88929677 -17.71120435 124.66335995 -18.203125 126.4375 C-19 129 -19 129 -20 130 C-21.34267413 130.08631874 -22.68974322 130.10706473 -24.03515625 130.09765625 C-24.84404297 130.09443359 -25.65292969 130.09121094 -26.48632812 130.08789062 C-27.33646484 130.07951172 -28.18660156 130.07113281 -29.0625 130.0625 C-29.91650391 130.05798828 -30.77050781 130.05347656 -31.65039062 130.04882812 C-33.76695663 130.03700373 -35.88348685 130.01906769 -38 130 C-37.58844754 128.26960899 -37.17033185 126.54077938 -36.75 124.8125 C-36.51796875 123.84957031 -36.2859375 122.88664062 -36.046875 121.89453125 C-34.87916457 117.36609325 -33.45194644 112.91571766 -32.06591797 108.45043945 C-30.39531911 103.04261224 -28.79164732 97.61534168 -27.1875 92.1875 C-26.84275635 91.0224292 -26.4980127 89.8573584 -26.14282227 88.65698242 C-22.41976648 76.0604018 -18.74456726 63.44994465 -15.08105469 50.8359375 C-8.92186589 29.63026968 -8.92186589 29.63026968 -5.9765625 20.1796875 C-3.91688476 13.47337679 -1.97059967 6.7328822 0 0 Z " fill="#050505" transform="translate(267,92)"/>
<path d="M0 0 C1.06500971 3.19502914 0.94828195 4.19492636 0.2578125 7.37890625 C0.07863281 8.21744141 -0.10054687 9.05597656 -0.28515625 9.91992188 C-0.47980469 10.79197266 -0.67445313 11.66402344 -0.875 12.5625 C-1.15537109 13.87637695 -1.15537109 13.87637695 -1.44140625 15.21679688 C-2.84795918 21.69591837 -2.84795918 21.69591837 -4 24 C-0.37 24 3.26 24 7 24 C6.34 28.62 5.68 33.24 5 38 C1.04 38 -2.92 38 -7 38 C-7.2475 39.423125 -7.495 40.84625 -7.75 42.3125 C-8.42407788 46.08831308 -9.17585797 49.83421617 -10.0234375 53.57421875 C-11.96499408 62.20930892 -13.51679648 70.08526078 -13 79 C-9.37 79.33 -5.74 79.66 -2 80 C-4.00892857 90.17857143 -4.00892857 90.17857143 -5 94 C-11.73507996 96.01071562 -20.09550485 96.31011456 -26.5625 93.375 C-30.18978849 91.16641842 -32.24869103 88.94044519 -34 85 C-35.28517822 75.84647953 -32.48319346 66.45003 -30.5625 57.5625 C-30.23284542 55.99562729 -29.90406265 54.42857089 -29.57617188 52.86132812 C-27.20563228 41.61689684 -27.20563228 41.61689684 -26 38 C-28.97 38 -31.94 38 -35 38 C-34.69147815 36.041036 -34.3780582 34.08284287 -34.0625 32.125 C-33.88847656 31.03445313 -33.71445313 29.94390625 -33.53515625 28.8203125 C-33 26 -33 26 -32 24 C-29.03 24 -26.06 24 -23 24 C-22.9788916 23.28932373 -22.9577832 22.57864746 -22.93603516 21.84643555 C-22.51593198 17.37124311 -22.13318165 14.12929201 -18.86621094 10.87353516 C-16.10556301 9.01093544 -13.30997583 7.38563168 -10.375 5.8125 C-8.88613281 4.95688477 -8.88613281 4.95688477 -7.3671875 4.08398438 C-4.92812311 2.68855811 -2.47515693 1.33000642 0 0 Z " fill="#10A5E0" transform="translate(238,266)"/>
<path d="M0 0 C6.27 0 12.54 0 19 0 C17.72796838 8.91681569 16.0700394 17.67325483 14.08636475 26.45507812 C13.29152573 29.97806877 12.51201949 33.50442944 11.734375 37.03125 C11.58140961 37.72492676 11.42844421 38.41860352 11.27084351 39.13330078 C9.86517478 45.54588136 8.61755088 51.98063614 7.42504883 58.43554688 C5.61827033 68.178305 3.55850333 77.86838624 1.5090332 87.5625 C0.99190547 90.03876057 0.49611132 92.5194434 0 95 C-6.27 95 -12.54 95 -19 95 C-18.34549283 85.91759232 -16.48273381 77.18947048 -14.5625 68.3125 C-14.21302661 66.67768163 -13.86408112 65.04275034 -13.515625 63.40771484 C-12.76072028 59.86936042 -12.00273362 56.33168458 -11.24267578 52.79443359 C-9.90157239 46.5484396 -8.57322952 40.29975578 -7.24609375 34.05078125 C-4.83495712 22.69961692 -2.41859975 11.34957669 0 0 Z " fill="#0FA5E0" transform="translate(381,264)"/>
</svg>
